<svg width="90" height="90" viewBox="0 0 90 90" fill="none" xmlns="http://www.w3.org/2000/svg">
<g clip-path="url(#clip0_1_280)">
<path d="M89.9626 36.271C89.6709 38.0304 89.4616 39.7993 89.0758 41.5446C85.9921 55.3897 74.0946 66.0263 59.9461 67.6329C42.9397 69.5664 27.3916 58.9838 22.9695 42.4643C18.8178 26.928 26.6812 10.1145 41.2955 3.30485C44.9823 1.55409 48.9543 0.481623 53.0212 0.13878C53.191 0.109608 53.3573 0.0631047 53.5175 0L58.2713 0C59.4239 0.171711 60.5788 0.322252 61.7291 0.515133C75.1108 2.74737 86.1402 13.1488 89.0758 26.3447C89.4686 28.1065 89.6732 29.9083 89.9626 31.6912V36.271ZM53.3482 16.91V36.5509H73.0055V31.2843H58.5701V16.91H53.3482Z" fill="#396C03"/>
<path d="M26.1424 67.4636L10.0392 83.6796L6.40039 80.029L22.4636 63.7988L26.1424 67.4636Z" fill="#396C03"/>
<path d="M36.5061 69.8789L40.0791 73.3884L26.1753 87.4216L22.5952 83.8628L36.5061 69.8789Z" fill="#396C03"/>
<path d="M6.07811 67.412L2.5498 63.9284C7.18208 59.2584 11.8253 54.5815 16.4796 49.8975L20.0079 53.3999L6.07811 67.412Z" fill="#396C03"/>
<path d="M3.64121 50.0033L0 46.3833L12.6713 33.6367C13.8968 34.8552 15.1317 36.0783 16.289 37.2262L3.64121 50.0033Z" fill="#396C03"/>
<path d="M43.7109 90.0001L40.0674 86.4106L52.7952 73.624L56.3846 77.2017L43.7109 90.0001Z" fill="#396C03"/>
</g>
<defs>
<clipPath id="clip0_1_280">
<rect width="89.9624" height="90" fill="white"/>
</clipPath>
</defs>
</svg>
