<svg width="72" height="90" viewBox="0 0 72 90" fill="none" xmlns="http://www.w3.org/2000/svg">
<g clip-path="url(#clip0_1_291)">
<path d="M7.5415 37.5813C1.67487 36.7013 -0.651252 33.1813 0.15541 26.3555H71.3587C71.2238 28.2944 71.3587 30.2744 70.8923 32.1048C70.1766 34.9472 68.1409 36.6837 65.2516 37.3349C64.791 37.4375 64.3217 37.4933 63.7614 37.5871V38.8866C63.7614 53.8172 63.7614 68.7497 63.7614 83.6842C63.7614 87.7263 61.4881 89.9967 57.4343 89.9967H13.8481C9.81189 89.9967 7.54443 87.7116 7.54443 83.6578C7.54443 68.7605 7.54443 53.8641 7.54443 38.9687L7.5415 37.5813ZM24.3787 35.0528C20.982 38.3087 16.5996 38.3615 13.2321 35.1173C11.3225 35.7861 11.2433 37.2527 11.2521 38.9775C11.3137 50.5025 11.2844 62.0275 11.2844 73.5555V74.9224H60.0185V71.5725C60.0185 60.1932 60.0185 48.8139 60.0185 37.4346C60.0185 36.7453 59.8895 36.2613 59.2471 35.9122C58.8545 35.6477 58.489 35.3451 58.1559 35.0088C54.6828 38.3586 50.3004 38.2999 46.9066 35.0469C43.413 38.297 39.2184 38.3498 35.6368 35.0762C32.0787 38.3469 27.884 38.3117 24.3787 35.0528ZM35.6544 84.3325C36.8629 84.3325 38.0685 84.353 39.277 84.3325C40.4328 84.309 41.213 83.5874 41.257 82.5725C41.301 81.5575 40.512 80.6453 39.324 80.6247C36.8737 80.5876 34.4224 80.5876 31.9702 80.6247C31.7213 80.6149 31.473 80.6552 31.24 80.7431C31.007 80.8311 30.7941 80.9649 30.6138 81.1367C30.4335 81.3085 30.2895 81.5148 30.1905 81.7433C30.0914 81.9718 30.0393 82.2178 30.0371 82.4669C30.0224 83.5317 30.832 84.3178 32.0318 84.3442C33.2315 84.3706 34.4459 84.3383 35.6544 84.3383V84.3325Z" fill="#396C03"/>
<path d="M63.7616 11.1935H7.60034C7.60034 9.02288 7.42434 6.89036 7.64434 4.80184C7.94647 1.93892 10.3841 0.0234665 13.4112 0C18.4243 0 23.4373 0 28.4533 0H57.4286C61.5 0 63.7587 2.24985 63.7645 6.29783L63.7616 11.1935ZM35.5431 7.49462C36.7868 7.49462 38.0306 7.51809 39.2743 7.49462C40.4476 7.46822 41.2103 6.75249 41.2572 5.73463C41.3041 4.71677 40.5239 3.80744 39.3271 3.78398C36.8748 3.74096 34.4236 3.74096 31.9733 3.78398C31.7151 3.77386 31.4576 3.81765 31.2173 3.91256C30.977 4.00747 30.7591 4.15141 30.5775 4.33522C30.3959 4.51902 30.2546 4.73865 30.1626 4.9801C30.0706 5.22155 30.0299 5.47952 30.0431 5.73757C30.093 6.76423 30.8615 7.47409 32.029 7.49755C33.1965 7.52102 34.3727 7.49462 35.5431 7.49462Z" fill="#396C03"/>
<path d="M0.973633 22.434C2.36109 20.3455 3.72802 18.4154 4.95121 16.3943C5.59361 15.3325 6.33573 14.9746 7.59119 14.9776C26.4348 15.0206 45.2794 15.0206 64.125 14.9776C65.093 14.9776 65.6415 15.2709 66.146 16.0805C67.466 18.1866 68.8682 20.2399 70.3348 22.434H0.973633Z" fill="#396C03"/>
<path d="M49.3646 58.08H21.853C21.9645 57.6254 22.0349 57.2 22.1669 56.8158C23.9269 51.6619 27.4469 48.4324 32.7503 47.2062C33.5628 47.0185 33.862 46.7281 33.7858 45.9156C33.7329 45.3694 33.7566 44.8184 33.8562 44.2788C33.9097 43.8571 34.121 43.4713 34.4476 43.1991C34.7741 42.927 35.1917 42.7887 35.6161 42.8121C36.5695 42.8121 37.1913 43.302 37.4348 44.2377C37.4713 44.379 37.4949 44.5233 37.5052 44.6689C37.5609 45.4257 37.3527 46.3761 37.7369 46.8836C38.0801 47.3382 39.0833 47.2649 39.7727 47.4966C44.7006 49.1628 47.9185 52.4833 49.3206 57.508C49.3541 57.6481 49.3786 57.7902 49.3939 57.9334C49.3901 57.9833 49.3802 58.0325 49.3646 58.08Z" fill="#396C03"/>
<path d="M35.5399 65.6298C30.8192 65.6298 26.1005 65.6298 21.3837 65.6298C20.9472 65.6504 20.5101 65.6049 20.0872 65.4949C19.6711 65.3902 19.3095 65.1332 19.0737 64.7747C18.838 64.4163 18.7454 63.9824 18.8142 63.5589C18.841 63.1322 19.0222 62.7299 19.324 62.4271C19.6257 62.1243 20.0273 61.9416 20.4539 61.9133C20.7465 61.8887 21.0404 61.8818 21.3339 61.8927H49.9777C50.1948 61.8927 50.4148 61.8927 50.6348 61.8927C51.6996 61.9602 52.471 62.6847 52.518 63.6527C52.5649 64.6207 51.7846 65.4948 50.6876 65.6034C50.3947 65.6229 50.101 65.6278 49.8076 65.618L35.5399 65.6298Z" fill="#396C03"/>
</g>
<defs>
<clipPath id="clip0_1_291">
<rect width="71.3588" height="90" fill="white"/>
</clipPath>
</defs>
</svg>
