<svg width="72" height="90" viewBox="0 0 72 90" fill="none" xmlns="http://www.w3.org/2000/svg">
<g clip-path="url(#clip0_1_287)">
<path d="M71.9738 35.7242C71.8886 43.2575 69.7455 49.9172 66.4257 56.2413C61.4936 65.6424 54.7439 73.6414 47.0678 80.8769C43.9157 83.8512 40.5258 86.5776 37.2186 89.3892C36.2547 90.2054 35.7439 90.1953 34.7976 89.4518C24.3274 81.2374 15.054 71.9039 7.9688 60.5575C4.33856 54.7441 1.53701 48.5702 0.480488 41.7253C-1.19443 30.8596 1.50196 21.1431 8.54964 12.7284C14.2704 5.90359 21.621 1.70252 30.4212 0.438194C43.1696 -1.39195 54.0604 2.50368 62.7655 12.0174C68.9444 18.7772 71.8536 26.9014 71.9738 35.7242ZM8.97776 35.8844C8.95523 50.7659 20.9951 62.9235 35.789 62.966C39.3489 62.9835 42.8771 62.2978 46.1714 60.9484C49.4656 59.5989 52.4609 57.6122 54.9855 55.1024C57.51 52.5925 59.5141 49.6087 60.8827 46.3224C62.2513 43.0361 62.9575 39.5119 62.9607 35.952C62.9858 21.1807 50.8983 9.01058 36.1445 8.97052C21.1554 8.93046 9.01281 20.9704 8.97776 35.8844Z" fill="#396C03"/>
<path d="M41.968 43.4651C41.968 41.4972 41.9455 39.5269 41.9831 37.559C42.0053 37.3027 41.9552 37.0452 41.8383 36.8159C41.7215 36.5867 41.5426 36.3948 41.3221 36.2622C36.6879 32.9223 36.1046 25.7094 40.1078 21.626C42.8743 18.8019 46.9427 18.7569 49.7217 21.5209C53.8377 25.6068 53.2844 32.9248 48.5826 36.2922C48.3749 36.417 48.2062 36.5972 48.0952 36.8126C47.9842 37.0279 47.9354 37.2699 47.9542 37.5115C47.9775 41.4789 47.9775 45.4471 47.9542 49.4162C47.9735 50.063 47.7796 50.6982 47.4022 51.2239C47.0249 51.7497 46.4852 52.1367 45.8662 52.3254C45.2688 52.5353 44.6181 52.5383 44.0188 52.334C43.4195 52.1296 42.9062 51.7298 42.5614 51.1987C42.2132 50.6155 42.0162 49.9546 41.9881 49.276C41.9205 47.3407 41.968 45.4029 41.968 43.4651Z" fill="#396C03"/>
<path d="M23.9745 37.5265C21.6912 37.2511 20.1465 36.152 19.5857 33.8987C19.5179 33.626 19.4834 33.3461 19.4831 33.065C19.4831 29.0993 19.4455 25.1336 19.5131 21.1678C19.5422 20.8724 19.6324 20.5863 19.7781 20.3277C19.9238 20.0691 20.1217 19.8436 20.3593 19.6657C21.3282 19.0323 22.4523 19.8534 22.4674 21.1403C22.4899 23.2659 22.4674 25.3965 22.4674 27.512V28.4033H25.4717V22.0466C25.4717 21.7036 25.4567 21.3581 25.4717 21.0151C25.5243 20.1138 26.1051 19.513 26.9188 19.4779C27.1249 19.4678 27.3308 19.501 27.5231 19.5756C27.7155 19.6502 27.8901 19.7643 28.0355 19.9107C28.1809 20.057 28.2939 20.2323 28.3672 20.4252C28.4406 20.618 28.4725 20.8241 28.461 21.0301C28.4886 23.2458 28.461 25.4641 28.461 27.6823V28.4083H31.4654V26.9662C31.4654 25.0309 31.4654 23.0931 31.4654 21.1578C31.4654 20.1314 32.0863 19.4829 32.9675 19.4904C33.8488 19.4979 34.4422 20.1263 34.4472 21.0877C34.4622 25.1161 34.4822 29.1444 34.4472 33.1727C34.4192 34.1311 34.078 35.0539 33.4757 35.8C32.8734 36.546 32.0433 37.0742 31.1124 37.3037C30.7568 37.3963 30.3938 37.4564 29.9732 37.554V43.9132C29.9732 45.7559 29.9932 47.601 29.9732 49.4412C29.9848 49.8412 29.916 50.2395 29.7709 50.6124C29.6258 50.9854 29.4074 51.3254 29.1286 51.6124C28.8497 51.8995 28.5161 52.1276 28.1475 52.2835C27.7789 52.4393 27.3828 52.5196 26.9826 52.5196C26.5825 52.5196 26.1864 52.4393 25.8178 52.2835C25.4492 52.1276 25.1156 51.8995 24.8367 51.6124C24.5579 51.3254 24.3395 50.9854 24.1944 50.6124C24.0493 50.2395 23.9805 49.8412 23.9921 49.4412C23.9695 45.8185 23.9921 42.1932 23.9921 38.5705L23.9745 37.5265Z" fill="#396C03"/>
</g>
<defs>
<clipPath id="clip0_1_287">
<rect width="71.974" height="90" fill="white"/>
</clipPath>
</defs>
</svg>
