<svg width="24" height="25" viewBox="0 0 24 25" fill="none" xmlns="http://www.w3.org/2000/svg">
<path d="M21 21.0947L15 15.0947M17 10.0947C17 11.014 16.8189 11.9242 16.4672 12.7735C16.1154 13.6228 15.5998 14.3945 14.9497 15.0445C14.2997 15.6945 13.5281 16.2101 12.6788 16.5619C11.8295 16.9137 10.9193 17.0947 10 17.0947C9.08075 17.0947 8.1705 16.9137 7.32122 16.5619C6.47194 16.2101 5.70026 15.6945 5.05025 15.0445C4.40024 14.3945 3.88463 13.6228 3.53284 12.7735C3.18106 11.9242 3 11.014 3 10.0947C3 8.23821 3.7375 6.45773 5.05025 5.14498C6.36301 3.83222 8.14348 3.09473 10 3.09473C11.8565 3.09473 13.637 3.83222 14.9497 5.14498C16.2625 6.45773 17 8.23821 17 10.0947Z" stroke="white" stroke-width="2" stroke-linecap="round" stroke-linejoin="round"/>
</svg>
