<svg width="29" height="31" viewBox="0 0 29 31" fill="none" xmlns="http://www.w3.org/2000/svg">
<path d="M2.32623 0.5C1.86209 0.5 1.41695 0.685924 1.08875 1.01687C0.760552 1.34782 0.576172 1.79668 0.576172 2.26471C0.576172 2.73273 0.760552 3.1816 1.08875 3.51254C1.41695 3.84349 1.86209 4.02941 2.32623 4.02941H4.4613L4.99507 6.18588C5.00037 6.21071 5.00621 6.23542 5.01257 6.26L7.38915 15.8424L5.82635 17.4165C3.62127 19.64 5.18233 23.4412 8.30093 23.4412H23.3269C23.7911 23.4412 24.2362 23.2553 24.5644 22.9243C24.8926 22.5934 25.077 22.1445 25.077 21.6765C25.077 21.2084 24.8926 20.7596 24.5644 20.4286C24.2362 20.0977 23.7911 19.9118 23.3269 19.9118H8.30093L10.051 18.1471H21.5769C21.9018 18.1469 22.2202 18.0555 22.4966 17.8831C22.7729 17.7108 22.9962 17.4643 23.1414 17.1712L28.3916 6.58294C28.5249 6.31396 28.5878 6.0151 28.5744 5.71472C28.561 5.41433 28.4717 5.12238 28.3149 4.86658C28.1582 4.61077 27.9393 4.39959 27.6789 4.25308C27.4185 4.10656 27.1252 4.02957 26.827 4.02941H8.06642L7.5239 1.83588C7.4291 1.45427 7.21056 1.11554 6.903 0.873509C6.59543 0.631474 6.21649 0.50001 5.82635 0.5H2.32623ZM25.077 27.8529C25.077 28.555 24.8004 29.2283 24.3081 29.7247C23.8158 30.2211 23.1481 30.5 22.4519 30.5C21.7557 30.5 21.088 30.2211 20.5957 29.7247C20.1034 29.2283 19.8268 28.555 19.8268 27.8529C19.8268 27.1509 20.1034 26.4776 20.5957 25.9812C21.088 25.4848 21.7557 25.2059 22.4519 25.2059C23.1481 25.2059 23.8158 25.4848 24.3081 25.9812C24.8004 26.4776 25.077 27.1509 25.077 27.8529ZM8.45143 30.5C9.14765 30.5 9.81535 30.2211 10.3077 29.7247C10.8 29.2283 11.0765 28.555 11.0765 27.8529C11.0765 27.1509 10.8 26.4776 10.3077 25.9812C9.81535 25.4848 9.14765 25.2059 8.45143 25.2059C7.75522 25.2059 7.08752 25.4848 6.59522 25.9812C6.10292 26.4776 5.82635 27.1509 5.82635 27.8529C5.82635 28.555 6.10292 29.2283 6.59522 29.7247C7.08752 30.2211 7.75522 30.5 8.45143 30.5Z" fill="white"/>
</svg>
