<svg width="16" height="11" viewBox="0 0 16 11" fill="none" xmlns="http://www.w3.org/2000/svg">
<path fill-rule="evenodd" clip-rule="evenodd" d="M10.293 0.798646C10.4805 0.611175 10.7348 0.505859 11 0.505859C11.2652 0.505859 11.5195 0.611175 11.707 0.798646L15.707 4.79865C15.8945 4.98617 15.9998 5.24048 15.9998 5.50565C15.9998 5.77081 15.8945 6.02512 15.707 6.21265L11.707 10.2126C11.5184 10.3948 11.2658 10.4956 11.0036 10.4933C10.7414 10.491 10.4906 10.3859 10.3052 10.2005C10.1198 10.0151 10.0146 9.76424 10.0123 9.50205C10.01 9.23985 10.1108 8.98725 10.293 8.79865L12.586 6.50565H1C0.734784 6.50565 0.48043 6.40029 0.292893 6.21275C0.105357 6.02522 0 5.77086 0 5.50565C0 5.24043 0.105357 4.98608 0.292893 4.79854C0.48043 4.611 0.734784 4.50565 1 4.50565H12.586L10.293 2.21265C10.1055 2.02512 10.0002 1.77081 10.0002 1.50565C10.0002 1.24048 10.1055 0.986174 10.293 0.798646Z" fill="white"/>
</svg>
